{
  "accessors": [
    {
      "bufferView": 2,
      "componentType": 5126,
      "count": 1505,
      "max": [
        61.468910217285156,
        130.70286560058594,
        31.942277908325195
      ],
      "min": [
        -61.46890640258789,
        -81.75334167480469,
        -20.70609474182129
      ],
      "type": "VEC3"
    },
    {
      "bufferView": 2,
      "byteOffset": 18060,
      "componentType": 5126,
      "count": 1505,
      "max": [
        1.0,
        1.0,
        1.0
      ],
      "min": [
        -1.0,
        -0.9999421238899231,
        -1.0
      ],
      "type": "VEC3"
    },
    {
      "bufferView": 1,
      "componentType": 5126,
      "count": 1505,
      "max": [
        0.9907199740409851,
        0.9898319840431213
      ],
      "min": [
        0.009279999881982803,
        0.008348999544978142
      ],
      "type": "VEC2"
    },
    {
      "bufferView": 0,
      "componentType": 5125,
      "count": 2328,
      "type": "SCALAR"
    }
  ],
  "asset": {
    "extras": {
      "author": "LisHard (https://sketchfab.com/lishard4)",
      "license": "CC-BY-4.0 (http://creativecommons.org/licenses/by/4.0/)",
      "source": "https://sketchfab.com/3d-models/game-boy-challenge-a91c7818d2aa4331aabb3962b29548be",
      "title": "Game Boy Challenge"
    },
    "generator": "Sketchfab-12.65.0",
    "version": "2.0"
  },
  "bufferViews": [
    {
      "buffer": 0,
      "byteLength": 9312,
      "name": "floatBufferViews",
      "target": 34963
    },
    {
      "buffer": 0,
      "byteLength": 12040,
      "byteOffset": 9312,
      "byteStride": 8,
      "name": "floatBufferViews",
      "target": 34962
    },
    {
      "buffer": 0,
      "byteLength": 36120,
      "byteOffset": 21352,
      "byteStride": 12,
      "name": "floatBufferViews",
      "target": 34962
    }
  ],
  "buffers": [
    {
      "byteLength": 57472,
      "uri": "scene.bin"
    }
  ],
  "extensionsUsed": [
    "KHR_materials_unlit"
  ],
  "images": [
    {
      "uri": "textures/GameBoy_Mat_baseColor.jpeg"
    },
    {
      "uri": "textures/GameBoy_Mat_emissive.png"
    }
  ],
  "materials": [
    {
      "doubleSided": true,
      "emissiveFactor": [
        1.0,
        1.0,
        1.0
      ],
      "emissiveTexture": {
        "index": 1
      },
      "extensions": {
        "KHR_materials_unlit": {}
      },
      "name": "GameBoy_Mat",
      "pbrMetallicRoughness": {
        "baseColorTexture": {
          "index": 0
        },
        "metallicFactor": 0.0
      }
    }
  ],
  "meshes": [
    {
      "name": "GameBoy_GameBoy_Mat_0",
      "primitives": [
        {
          "attributes": {
            "NORMAL": 1,
            "POSITION": 0,
            "TEXCOORD_0": 2
          },
          "indices": 3,
          "material": 0,
          "mode": 4
        }
      ]
    }
  ],
  "nodes": [
    {
      "children": [
        1
      ],
      "matrix": [
        0.006480617914348841,
        0.0,
        0.0,
        0.0,
        0.0,
        1.4389862444616687e-18,
        -0.006480617914348841,
        0.0,
        0.0,
        0.006480617914348841,
        1.4389862444616687e-18,
        0.0,
        0.0,
        0.0,
        0.0,
        1.0
      ],
      "name": "Sketchfab_model"
    },
    {
      "children": [
        2
      ],
      "matrix": [
        1.0,
        0.0,
        0.0,
        0.0,
        0.0,
        0.0,
        1.0,
        0.0,
        0.0,
        -1.0,
        0.0,
        0.0,
        0.0,
        0.0,
        0.0,
        1.0
      ],
      "name": "GameBoy model.fbx"
    },
    {
      "children": [
        3
      ],
      "name": "RootNode"
    },
    {
      "children": [
        4
      ],
      "matrix": [
        0.9434849195020552,
        0.32244063394094535,
        -0.07660446629251892,
        0.0,
        -0.3312947116235939,
        0.9238395638240138,
        -0.19174012194555368,
        0.0,
        0.008945430254613557,
        0.20628256808857431,
        0.9784515733445077,
        0.0,
        0.0,
        0.0,
        0.0,
        1.0
      ],
      "name": "GameBoy"
    },
    {
      "mesh": 0,
      "name": "GameBoy_GameBoy_Mat_0"
    }
  ],
  "samplers": [
    {
      "magFilter": 9729,
      "minFilter": 9987,
      "wrapS": 10497,
      "wrapT": 10497
    }
  ],
  "scene": 0,
  "scenes": [
    {
      "name": "Sketchfab_Scene",
      "nodes": [
        0
      ]
    }
  ],
  "textures": [
    {
      "sampler": 0,
      "source": 0
    },
    {
      "sampler": 0,
      "source": 1
    }
  ]
}
